<svg width="130" height="130" viewBox="0 0 130 130" fill="none" xmlns="http://www.w3.org/2000/svg">
<rect x="0.5" y="0.5" width="129" height="129" rx="8.5" fill="white"/>
<path d="M69.0393 22C91.1625 22 102.156 32.5294 102.156 49.3491C102.156 61.9296 94.42 70.1341 83.969 71.5017C92.7912 73.2795 97.9484 78.3391 98.8988 88.3214L99.0363 90.1571L99.1563 91.8732L99.2601 93.4786L99.3321 94.689L99.4095 96.1172L99.4496 96.9323L99.5069 98.2271L99.553 99.4501L99.5759 100.153L99.6068 101.279L99.6334 102.567L99.6431 103.19L99.6605 104.993L99.6661 106.875L99.6664 108H76.8522L76.8534 107.531L76.8615 106.619L76.8751 105.731L76.9146 103.581L76.9246 102.86L76.9324 101.73L76.9313 101.007L76.9247 100.249L76.9154 99.6535L76.8967 98.8204L76.8696 97.937L76.8333 96.9977L76.7868 95.9969L76.7593 95.4718L76.7127 94.6513L76.659 93.7892L76.5758 92.5712L76.5042 91.6032C76.4836 91.3046 76.4598 91.0131 76.4327 90.7284L76.3743 90.1683C75.6208 83.5558 72.998 80.8531 68.5058 79.9517L68.1272 79.8807C67.8718 79.8361 67.6107 79.7969 67.3438 79.7627L66.9392 79.7151C66.871 79.7077 66.8025 79.7007 66.7336 79.694L66.316 79.6572L65.8897 79.6272L65.4548 79.6038L65.016 79.5868L64.5688 79.5758L64.1131 79.5704L28 79.5697V61.6563H64.9679C65.5723 61.6563 66.1581 61.6448 66.7252 61.6214L67.286 61.5941L67.8344 61.5587L68.3703 61.5151C68.4585 61.5071 68.5463 61.4988 68.6336 61.4902L69.1508 61.4342C69.4914 61.3941 69.8238 61.3484 70.1478 61.2969L70.6276 61.2154C76.6264 60.1278 79.6257 56.9434 79.6257 50.7293C79.6257 43.7555 74.7399 39.5289 64.9679 39.5289H28V22H69.0393ZM52.1229 94.6457C55.1161 94.6457 56.3685 96.3077 56.8146 97.8985L56.8735 98.1273L56.9218 98.3539L56.9533 98.5329L56.9667 98.6214L56.9892 98.7961L57.0062 98.9672L57.0127 99.0512L57.0219 99.2158L57.0247 99.2962L57.0269 99.453V108H28V94.6457H52.1229Z" fill="#121212"/>
<rect x="0.5" y="0.5" width="129" height="129" rx="8.5" stroke="#E6E8EC"/>
</svg>
